<?xml version="1.0" encoding="UTF-8"?>
<svg width="14px" height="14px" viewBox="0 0 14 14" version="1.1" xmlns="http://www.w3.org/2000/svg" xmlns:xlink="http://www.w3.org/1999/xlink">
    <title>编组@2x</title>
    <g id="页面-1" stroke="none" stroke-width="1" fill="none" fill-rule="evenodd">
        <g id="首页-推广中心" transform="translate(-283.000000, -64.000000)" fill="#8885FB" fill-rule="nonzero">
            <g id="编组-4备份" transform="translate(283.000000, 61.000000)">
                <g id="编组" transform="translate(0.000000, 3.000000)">
                    <path d="M7,0 C3.134375,0 0,3.134375 0,7 C0,10.865625 3.134375,14 7,14 C10.865625,14 14,10.865625 14,7 C14,3.134375 10.865625,0 7,0 Z M8.3125,5.3609375 L6.953125,10.0703125 C6.878125,10.3390625 6.840625,10.5171875 6.840625,10.6 C6.840625,10.6484375 6.8609375,10.69375 6.9,10.7359375 C6.9390625,10.778125 6.98125,10.7984375 7.0265625,10.7984375 C7.1015625,10.7984375 7.1765625,10.765625 7.2515625,10.6984375 C7.45,10.534375 7.6890625,10.2390625 7.9671875,9.8109375 L8.1921875,9.94375 C7.525,11.10625 6.8171875,11.6875 6.065625,11.6875 C5.778125,11.6875 5.55,11.60625 5.3796875,11.4453125 C5.209375,11.284375 5.125,11.0796875 5.125,10.8328125 C5.125,10.66875 5.1625,10.4625 5.2375,10.209375 L6.1578125,7.0421875 C6.246875,6.7375 6.290625,6.5078125 6.290625,6.353125 C6.290625,6.25625 6.2484375,6.1703125 6.1640625,6.0953125 C6.0796875,6.0203125 5.965625,5.9828125 5.8203125,5.9828125 C5.7546875,5.9828125 5.675,5.984375 5.58125,5.9890625 L5.6671875,5.7234375 L7.9125,5.359375 L8.3125,5.359375 L8.3125,5.3609375 Z M8.590625,3.975 C8.4,4.165625 8.1703125,4.259375 7.9015625,4.259375 C7.6359375,4.259375 7.409375,4.1640625 7.21875,3.975 C7.028125,3.784375 6.934375,3.5546875 6.934375,3.2859375 C6.934375,3.0171875 7.028125,2.7875 7.215625,2.596875 C7.403125,2.4078125 7.63125,2.3125 7.9015625,2.3125 C8.175,2.3125 8.40625,2.4078125 8.59375,2.596875 C8.78125,2.7875 8.875,3.0171875 8.875,3.2859375 C8.875,3.5546875 8.7796875,3.784375 8.590625,3.975 L8.590625,3.975 Z" id="形状"></path>
                </g>
            </g>
        </g>
    </g>
</svg>