<?xml version="1.0" encoding="UTF-8"?>
<svg width="48px" height="48px" viewBox="0 0 48 48" version="1.1" xmlns="http://www.w3.org/2000/svg" xmlns:xlink="http://www.w3.org/1999/xlink">
    <title>编组 6</title>
    <g id="页面-1" stroke="none" stroke-width="1" fill="none" fill-rule="evenodd">
        <g id="资产-平台资产" transform="translate(-121.000000, -226.000000)" fill-rule="nonzero">
            <g id="编组-6" transform="translate(121.000000, 226.000000)">
                <rect id="矩形" fill="#613AF1" x="0" y="0" width="48" height="48" rx="24"></rect>
                <g id="编组" transform="translate(12.000000, 12.000000)" fill="#FFFFFF">
                    <path d="M18.15969,0 L5.84030998,0 C2.62059328,0 0,2.62059328 0,5.84030998 L0,18.15969 C0,21.3794067 2.61906879,24 5.84030998,24 L18.15969,24 C21.3794067,24 24,21.3794067 24,18.15969 L24,5.84030998 C24,2.62059328 21.3794067,0 18.15969,0 Z M21.8657181,18.15969 C21.8657181,20.2025027 20.2025027,21.8657181 18.15969,21.8657181 L5.84030998,21.8657181 C3.7974973,21.8657181 2.1342819,20.2040272 2.1342819,18.15969 L2.1342819,5.84030998 C2.1342819,3.7974973 3.79597281,2.1342819 5.84030998,2.1342819 L18.15969,2.1342819 C20.2025027,2.1342819 21.8657181,3.79597281 21.8657181,5.84030998 L21.8657181,18.15969 Z" id="形状"></path>
                    <path d="M15.9033166,15.871096 L8.0951189,15.871096 C7.48967459,15.871096 7,16.3470581 7,16.935548 C7,17.5240379 7.48967459,18 8.0951189,18 L15.9048811,18 C16.5103254,18 17,17.5240379 17,16.935548 C17,16.3470581 16.508761,15.871096 15.9033166,15.871096 Z M11.2115144,14.0828167 C11.4151093,14.2867165 11.6936275,14.4037546 11.9859199,14.4082349 L11.9984355,14.4082349 C12.2862954,14.4082349 12.563204,14.2987484 12.7681477,14.1010645 L16.6730288,10.3541935 C17.1032541,9.94057785 17.1079474,9.2669318 16.6824155,8.84875424 C16.2568836,8.43057668 15.5638298,8.42601474 15.1336045,8.83963037 L13.0935544,10.7967014 L13.0935544,6.06445198 C13.0935544,5.4759621 12.6038798,5 11.9984355,5 C11.3929912,5 10.9033166,5.4759621 10.9033166,6.06445198 L10.9033166,10.7100246 L9.06195244,8.85787811 C8.64111389,8.43513861 7.94806008,8.42297345 7.51314143,8.83202714 C7.07822278,9.24108083 7.06570713,9.91472687 7.48654568,10.3374664 L11.2115144,14.0828167 Z" id="形状"></path>
                </g>
            </g>
        </g>
    </g>
</svg>