<?xml version="1.0" encoding="UTF-8"?>
<svg width="16px" height="18px" viewBox="0 0 16 18" version="1.1" xmlns="http://www.w3.org/2000/svg" xmlns:xlink="http://www.w3.org/1999/xlink">
    <title>编组</title>
    <g id="页面-1" stroke="none" stroke-width="1" fill="none" fill-rule="evenodd">
        <g id="首页-推广中心备份" transform="translate(-316.000000, -269.000000)" fill="#613AF1" fill-rule="nonzero">
            <g id="编组" transform="translate(316.000000, 269.000000)">
                <path d="M10.7166672,3.42857184 C11.4269054,3.42857184 12.0026673,4.00420572 12.0026673,4.71428609 L12.0026673,16.7142858 C12.0026673,17.4243661 11.4269054,18 10.7166672,18 L1.28600006,18 C0.944931641,18 0.617832493,17.8645412 0.376660698,17.623423 C0.135488903,17.3823048 0,17.0552784 0,16.7142858 L0,4.71428609 C0,4.00420572 0.57576184,3.42857184 1.28600006,3.42857184 L10.7166672,3.42857184 Z M10.2880005,5.1428575 L1.71466675,5.1428575 L1.71466675,16.2857143 L10.2880005,16.2857143 L10.2880005,5.1428575 Z M14.1425714,2.4994951e-07 C14.8052943,-0.000409400709 15.3598061,0.502770592 15.4234274,1.16228618 L15.4285714,1.28571475 L15.4285714,12.851143 C15.4280682,13.3046515 15.0743122,13.679284 14.6214822,13.7058617 C14.1686522,13.7324394 13.7734816,13.4017632 13.719906,12.9514287 L13.7139047,12.851143 L13.7139047,1.71428616 L5.14400026,1.71428616 C4.70935382,1.71422883 4.34352185,1.38899437 4.29266821,0.957429052 L4.28666687,0.85714334 C4.28666687,0.422593497 4.61203099,0.0568428346 5.04369225,0.00600050673 L5.14400026,2.4994951e-07 L14.1425714,2.4994951e-07 Z" id="形状"></path>
            </g>
        </g>
    </g>
</svg>