<?xml version="1.0" encoding="UTF-8"?>
<svg width="48px" height="48px" viewBox="0 0 48 48" version="1.1" xmlns="http://www.w3.org/2000/svg" xmlns:xlink="http://www.w3.org/1999/xlink">
    <title>编组 4</title>
    <g id="页面-1" stroke="none" stroke-width="1" fill="none" fill-rule="evenodd">
        <g id="资产-理财资产" transform="translate(-218.000000, -226.000000)" fill-rule="nonzero">
            <g id="编组-4" transform="translate(218.000000, 226.000000)">
                <rect id="矩形" fill="#613AF1" x="0" y="0" width="48" height="48" rx="24"></rect>
                <g id="编组" transform="translate(13.000000, 13.000000)" fill="#FFFFFF">
                    <path d="M11.0503441,0.0082240202 C11.9497428,-0.0523126575 12.839383,0.223001463 13.5434296,0.779751225 C14.12689,0.518688215 15.0375875,0.236780638 15.9185338,0.474317622 C16.6088952,0.667421096 17.1792033,1.14964584 17.4793311,1.79405185 C18.2918984,3.40550882 17.4706079,5.00206597 16.5419778,6.27330622 C18.0436054,7.21849598 22.1245278,10.3154824 21.9970813,15.9758193 C21.8618069,21.9669624 17.1133382,21.9979763 17.0675475,22 L5.52783371,22 C2.28135069,22 0.429385978,20.0956061 0.0234349034,16.3397644 L0.020390718,16.3037417 C-0.326774323,11.0407418 3.84972012,7.62220767 5.64215694,6.40808759 C4.68999203,5.25923327 3.81851082,3.94349593 4.17718749,2.54946499 C4.3339272,1.86303811 4.77869123,1.27501904 5.4002849,0.932417433 C6.3611219,0.413175248 7.58171233,0.551194607 8.5596377,0.817873508 C9.11127479,0.435309951 9.71016071,0.120744201 11.0503441,0.0082240202 Z M12.7250554,2.3816713 C12.6314019,2.28311495 12.0199556,1.67591578 11.2001488,1.74495076 C10.1329443,1.83495678 9.86492812,2.02862911 9.33086544,2.41620143 L8.87321438,2.74624883 L8.44434238,2.60433376 C7.48726584,2.28792134 6.66421021,2.23502573 6.24319169,2.46294993 C6.11991497,2.52958171 5.96742431,2.64872965 5.88159875,2.98143321 C5.70457553,3.67018927 6.43914514,4.65076926 7.25966822,5.60805089 C7.51700927,5.90888483 7.63045136,6.30495224 7.57086523,6.69455237 C7.51127909,7.0841525 7.28446931,7.42933259 6.94867526,7.64145854 C5.65832438,8.45624327 1.47535784,11.4778199 1.77373917,16.1722236 C1.9947368,18.1951078 2.61754132,20.2566455 5.52783371,20.2566455 L17.0738661,20.2566455 C17.3867776,20.2532557 20.1451166,20.102588 20.2398189,15.9368116 C20.35867,10.6892933 16.1468733,8.04314648 15.3014339,7.56607406 C14.9559937,7.37007517 14.7129385,7.03614609 14.6346535,6.64999671 C14.5563686,6.26384733 14.6504765,5.8630768 14.8928224,5.55055126 C15.960257,4.17053474 16.2637035,3.28036553 15.9074315,2.57372463 C15.7541989,2.2700365 15.5867943,2.19138874 15.4582222,2.15663093 C14.9661386,2.02425276 14.1756993,2.3824302 13.8904668,2.56608499 L13.2375785,2.98692261 L12.7375391,2.39505331 C12.7374624,2.39497741 12.7350577,2.39232125 12.7304275,2.38736308 L12.7250554,2.3816713 Z" id="形状"></path>
                    <path d="M10.947427,8.00051959 C10.317883,8.01293506 9.73368473,8.24861029 9.31891539,8.72007012 L9.28875727,8.75515613 L6.72072488,11.3400905 C6.28147585,11.7822072 6,12.4054694 6,13.0326423 L6.00051622,13.0855584 C6.012824,13.7192125 6.24699777,14.3072246 6.71539966,14.7247018 L6.75020377,14.75492 L9.31839917,17.3398544 C10.1866815,18.2138053 11.7071401,18.2138053 12.6427485,17.376718 L12.662718,17.3588605 L15.2792751,14.7252213 C15.7185242,14.2830773 16,13.6598151 16,13.0326423 L15.9994838,12.9797534 C15.987176,12.346072 15.7530022,11.7580873 15.2846275,11.3405828 L15.2488725,11.3094894 L12.6816008,8.72545745 C12.2423246,8.28331345 11.6230778,8 11,8 L10.947427,8.00054694 L10.947427,8.00051959 Z M11,9.82920398 C11.1172363,9.82920398 11.2838124,9.90541967 11.3965386,10.0188818 L14.0298049,12.6693393 L14.069092,12.7009796 C14.1389719,12.7572321 14.1826604,12.8647326 14.1826604,13.0326423 L14.1816552,13.0568716 C14.1724175,13.1727676 14.0994403,13.3258826 13.9941857,13.431797 L11.42129,16.0213804 L11.435391,16.0095392 C11.2020594,16.2183051 10.7742488,16.2183051 10.6034614,16.0464027 L7.97019508,13.3959453 L7.930908,13.364305 C7.86102809,13.3080525 7.81733956,13.200552 7.81733956,13.0326423 C7.81733956,12.9146406 7.89306091,12.746977 8.0057871,12.6335149 L10.6390534,9.9830574 L10.6704885,9.94351385 C10.7263761,9.87317773 10.8331794,9.82920398 11,9.82920398 L11,9.82920398 Z" id="形状"></path>
                </g>
            </g>
        </g>
    </g>
</svg>