<?xml version="1.0" encoding="UTF-8"?>
<svg width="48px" height="48px" viewBox="0 0 48 48" version="1.1" xmlns="http://www.w3.org/2000/svg" xmlns:xlink="http://www.w3.org/1999/xlink">
    <title>编组 5</title>
    <g id="页面-1" stroke="none" stroke-width="1" fill="none" fill-rule="evenodd">
        <g id="资产-平台资产" transform="translate(-207.000000, -226.000000)" fill-rule="nonzero">
            <g id="编组-5" transform="translate(207.000000, 226.000000)">
                <rect id="矩形" fill="#613AF1" x="0" y="0" width="48" height="48" rx="24"></rect>
                <g id="编组" transform="translate(12.000000, 12.000000)" fill="#FFFFFF">
                    <path d="M12,24 C5.38327526,24 0,18.6167247 0,12 C0,5.38327526 5.38327526,0 12,0 C18.6167247,0 24,5.38327526 24,12 C24,18.6167247 18.6167247,24 12,24 Z M12,2.09059233 C6.53608761,2.09059233 2.09059233,6.53608761 2.09059233,12 C2.09059233,17.4639124 6.53608761,21.9094077 12,21.9094077 C17.4639124,21.9094077 21.9094077,17.4639124 21.9094077,12 C21.9094077,6.53608761 17.4654057,2.09059233 12,2.09059233 Z" id="形状"></path>
                    <path d="M16.521697,11.5338225 L7.47830297,11.5338225 C6.91617745,11.5338225 6.46153846,11.0605849 6.46153846,10.4754636 C6.46153846,9.89034229 6.91617745,9.41710466 7.47830297,9.41710466 L14.242692,9.41710466 L13.2157598,8.2256949 C13.035723,8.0168424 12.94283,7.74206046 12.9575419,7.46187423 C12.9722539,7.181688 13.0933641,6.91908107 13.294196,6.73189687 C13.4948404,6.54449497 13.7588232,6.44780181 14.0279978,6.46311564 C14.2971725,6.47842946 14.5494588,6.60449407 14.7292864,6.8135417 L17.2770078,9.76938698 C17.5442716,10.0808469 17.6125401,10.5253576 17.4484053,10.9078788 C17.2842704,11.2904 16.9225927,11.5338225 16.521697,11.5338225 L16.521697,11.5338225 Z M10.0274769,18.461538 C9.74859287,18.461538 9.47116141,18.3436062 9.27071355,18.1092553 L6.72299219,15.15341 C6.45572838,14.8419501 6.3874599,14.3974394 6.55159475,14.0149182 C6.71572959,13.6323971 7.07885977,13.3874626 7.47975549,13.3874626 L16.521697,13.3874626 C17.0838226,13.3874626 17.5384615,13.8607002 17.5384615,14.4458215 C17.5384615,15.0309428 17.0838226,15.5041804 16.521697,15.5041804 L9.75730799,15.5041804 L10.7842402,16.6955902 C10.964277,16.9044427 11.05717,17.1792246 11.0424581,17.4594108 C11.0277461,17.7395971 10.9066359,18.002204 10.705804,18.1893882 C10.5200693,18.3647422 10.2782296,18.4617699 10.0274769,18.461538 L10.0274769,18.461538 Z" id="形状"></path>
                </g>
            </g>
        </g>
    </g>
</svg>