<?xml version="1.0" encoding="UTF-8"?>
<svg width="34px" height="34px" viewBox="0 0 34 34" version="1.1" xmlns="http://www.w3.org/2000/svg" xmlns:xlink="http://www.w3.org/1999/xlink">
    <title>兑换 2备份</title>
    <g id="页面-1" stroke="none" stroke-width="1" fill="none" fill-rule="evenodd">
        <g id="划转" transform="translate(-311.000000, -143.000000)">
            <g id="兑换-2备份" transform="translate(311.000000, 143.000000)">
                <g id="兑换" transform="translate(17.000000, 17.000000) rotate(90.000000) translate(-17.000000, -17.000000) ">
                    <path d="M17,34 C26.3908,34 34,26.3908 34,17 C34,7.6092 26.3908,0 17,0 C7.6092,0 0,7.6092 0,17 C0,26.3908 7.6092,34 17,34 Z" id="Ellipse-384" fill="#613AF1"></path>
                    <path d="M19.01246,22.086264 L22.418988,18.672936 C22.442652,18.6492244 22.4684036,18.628056 22.496236,18.609424 C22.5240684,18.590792 22.5534444,18.5750636 22.584364,18.562232 C22.6152836,18.5493596 22.6471484,18.5396356 22.679972,18.53306 C22.7128364,18.526532 22.746,18.5232476 22.779456,18.5231995 C22.8129596,18.5231524 22.8461436,18.526396 22.879008,18.532924 C22.9118316,18.5394044 22.9437236,18.54904 22.974684,18.561824 C23.0056444,18.574608 23.0350476,18.5902956 23.06288,18.60888 C23.09076,18.6274236 23.1165524,18.648524 23.140264,18.672188 C23.188136,18.7199716 23.2250396,18.7750924 23.250968,18.837564 C23.2768964,18.9000356 23.2899116,18.965064 23.2900001,19.032656 C23.2900476,19.1002956 23.2771684,19.1653716 23.251376,19.227884 C23.225536,19.2903964 23.1887276,19.345592 23.140944,19.393464 L23.140604,19.393804 L19.734416,22.80686 L19.734144,22.807064 C19.686408,22.854936 19.6313076,22.8918396 19.568836,22.917768 C19.5063644,22.9436964 19.4413156,22.9567116 19.373676,22.9568001 C19.3071244,22.9568476 19.2430004,22.944356 19.181304,22.919332 C19.1196484,22.8942604 19.0649764,22.8585196 19.017288,22.812096 C19.0158396,22.8106476 19.0143844,22.8091924 19.012936,22.807744 C18.965064,22.760008 18.9281604,22.7049076 18.902232,22.642436 C18.876256,22.5799644 18.8632476,22.5149156 18.8631995,22.447276 C18.8631116,22.379684 18.875984,22.3146284 18.901824,22.252116 C18.9276164,22.1896036 18.9644044,22.134408 19.012188,22.086536 L19.012392,22.086332 L19.01246,22.086264 Z" id="Vector" fill="#FFFFFF" fill-rule="nonzero"></path>
                    <path d="M11.1205024,19.533408 C11.0876584,19.52688 11.0557664,19.5172036 11.0248332,19.504372 C10.9938932,19.4915404 10.9645036,19.4758324 10.9366576,19.457248 C10.9088116,19.438616 10.8830532,19.417468 10.8593756,19.393804 C10.835698,19.37014 10.8145568,19.3443884 10.795952,19.316556 C10.7773472,19.288676 10.7616392,19.2592796 10.7488212,19.22836 C10.7360032,19.1974404 10.7263336,19.1655484 10.7197988,19.132684 C10.713264,19.0998604 10.71,19.0667036 10.71,19.0332 C10.71,18.9996964 10.713264,18.9665396 10.7197988,18.933716 C10.7263336,18.9008516 10.7360032,18.8689596 10.7488212,18.83804 C10.7616392,18.8070796 10.7773472,18.7776764 10.795952,18.749844 C10.8145568,18.7220116 10.835698,18.69626 10.8593756,18.672596 C10.8830532,18.6488844 10.9088116,18.6277364 10.9366576,18.609152 C10.9645036,18.59052 10.9938932,18.574812 11.0248332,18.562028 C11.0557664,18.5491964 11.0876584,18.53952 11.1205024,18.532992 C11.1533464,18.526464 11.18651,18.5232 11.22,18.5232 L22.78,18.5232 C22.8135036,18.5232 22.8466604,18.526464 22.879484,18.532992 C22.9123484,18.53952 22.9442404,18.5491964 22.97516,18.562028 C23.0061204,18.574812 23.0355236,18.59052 23.063356,18.609152 C23.0911884,18.6277364 23.11694,18.6488844 23.140604,18.672596 C23.1643156,18.69626 23.1854636,18.7220116 23.204048,18.749844 C23.2226324,18.7776764 23.2383404,18.8070796 23.251172,18.83804 C23.2640036,18.8689596 23.27368,18.9008516 23.280208,18.933716 C23.286736,18.9665396 23.29,18.9996964 23.29,19.0332 C23.29,19.0667036 23.286736,19.0998604 23.280208,19.132684 C23.27368,19.1655484 23.2640036,19.1974404 23.251172,19.22836 C23.2383404,19.2592796 23.2226324,19.288676 23.204048,19.316556 C23.1854636,19.3443884 23.1643156,19.37014 23.140604,19.393804 C23.11694,19.417468 23.0911884,19.438616 23.063356,19.457248 C23.0355236,19.4758324 23.0061204,19.4915404 22.97516,19.504372 C22.9442404,19.5172036 22.9123484,19.52688 22.879484,19.533408 C22.8466604,19.539936 22.8135036,19.5432 22.78,19.5432 L11.22,19.5432 C11.18651,19.5432 11.1533464,19.539936 11.1205024,19.533408 Z" id="Vector" fill="#FFFFFF" fill-rule="nonzero"></path>
                    <path d="M11.5445844,15.3601664 C11.49897,15.3978044 11.4483372,15.4266432 11.3926928,15.4466692 C11.3370484,15.4666952 11.2796496,15.476732 11.22051,15.4767935 L11.22051,15.4767935 C11.1528772,15.4768612 11.087808,15.4639888 11.0253024,15.4381692 C10.96279,15.4123496 10.9076012,15.375548 10.859736,15.327778 C10.811864,15.2800012 10.7749604,15.2248872 10.7490184,15.1624292 C10.7230764,15.0999712 10.710068,15.0349292 10.7099997,14.9673032 C10.709932,14.8996704 10.7228044,14.8346012 10.748624,14.7720956 C10.7744436,14.7095832 10.8112452,14.6543944 10.8590152,14.6065292 L14.265414,11.1933304 L14.2654752,11.1932692 L14.2658152,11.1929292 C14.286698,11.1720056 14.3092332,11.1530336 14.3334208,11.1360268 C14.3576016,11.11902 14.3830676,11.1042232 14.4098256,11.09165 C14.4365836,11.07907 14.4642256,11.0688972 14.4927516,11.0611248 C14.5212776,11.0533524 14.5502592,11.0481028 14.5796964,11.045376 C14.6091336,11.0426424 14.6385912,11.0424724 14.6680624,11.044866 C14.6975268,11.0472528 14.7265696,11.0521692 14.755184,11.0596152 C14.7837916,11.0670612 14.8115492,11.0769144 14.83845,11.0891816 C14.8653508,11.1014556 14.8909868,11.1159532 14.9153648,11.1326812 C14.9410892,11.1503272 14.9649844,11.1701696 14.987064,11.1922084 C15.034936,11.2399852 15.0718396,11.2950992 15.0977816,11.3575572 C15.1237236,11.4200152 15.136732,11.4850572 15.1368003,11.5526832 C15.136868,11.620316 15.1239888,11.6853852 15.0981692,11.7478908 C15.0723496,11.8104032 15.0355548,11.865592 14.9877848,11.9134572 L11.5815084,15.3265336 L11.5809848,15.3270572 C11.569384,15.3386784 11.5572528,15.3497148 11.5445844,15.3601664 Z" id="Vector" fill="#FFFFFF" fill-rule="nonzero"></path>
                    <path d="M11.22,14.4568068 L22.78,14.4568068 C22.8135036,14.4568068 22.8466604,14.4600708 22.879484,14.4666056 C22.9123484,14.4731404 22.9442404,14.48281 22.97516,14.495628 C23.0061204,14.508446 23.0355236,14.524154 23.063356,14.5427588 C23.0911884,14.5613636 23.11694,14.5825048 23.140604,14.6061824 C23.1643156,14.62986 23.1854636,14.6556184 23.204048,14.6834644 C23.2226324,14.7113104 23.2383404,14.7407 23.251172,14.77164 C23.2640036,14.8025732 23.27368,14.8344652 23.280208,14.8673092 C23.286736,14.9001532 23.29,14.9333168 23.29,14.9668068 C23.29,15.0002968 23.286736,15.0334604 23.280208,15.0663044 C23.27368,15.0991484 23.2640036,15.1310404 23.251172,15.1619736 C23.2383404,15.1929136 23.2226324,15.2223032 23.204048,15.2501492 C23.1854636,15.2779952 23.1643156,15.3037536 23.140604,15.3274312 C23.11694,15.3511088 23.0911884,15.37225 23.063356,15.3908548 C23.0355236,15.4094596 23.0061204,15.4251676 22.97516,15.4379856 C22.9442404,15.4508036 22.9123484,15.4604732 22.879484,15.467008 C22.8466604,15.4735428 22.8135036,15.4768068 22.78,15.4768068 L11.22,15.4768068 C11.18651,15.4768068 11.1533464,15.4735428 11.1205024,15.467008 C11.0876584,15.4604732 11.0557664,15.4508036 11.0248332,15.4379856 C10.9938932,15.4251676 10.9645036,15.4094596 10.9366576,15.3908548 C10.9088116,15.37225 10.8830532,15.3511088 10.8593756,15.3274312 C10.835698,15.3037536 10.8145568,15.2779952 10.795952,15.2501492 C10.7773472,15.2223032 10.7616392,15.1929136 10.7488212,15.1619736 C10.7360032,15.1310404 10.7263336,15.0991484 10.7197988,15.0663044 C10.713264,15.0334604 10.71,15.0002968 10.71,14.9668068 C10.71,14.9333168 10.713264,14.9001532 10.7197988,14.8673092 C10.7263336,14.8344652 10.7360032,14.8025732 10.7488212,14.77164 C10.7616392,14.7407 10.7773472,14.7113104 10.795952,14.6834644 C10.8145568,14.6556184 10.835698,14.62986 10.8593756,14.6061824 C10.8830532,14.5825048 10.9088116,14.5613636 10.9366576,14.5427588 C10.9645036,14.524154 10.9938932,14.508446 11.0248332,14.495628 C11.0557664,14.48281 11.0876584,14.4731404 11.1205024,14.4666056 C11.1533464,14.4600708 11.18651,14.4568068 11.22,14.4568068 Z" id="Vector" fill="#FFFFFF" fill-rule="nonzero"></path>
                </g>
            </g>
        </g>
    </g>
</svg>