<?xml version="1.0" encoding="UTF-8"?>
<svg width="33px" height="31px" viewBox="0 0 33 31" version="1.1" xmlns="http://www.w3.org/2000/svg" xmlns:xlink="http://www.w3.org/1999/xlink">
    <title>编组 3</title>
    <g id="页面-1" stroke="none" stroke-width="1" fill="none" fill-rule="evenodd">
        <g id="交易-看涨" transform="translate(-62.000000, -319.000000)">
            <g id="编组-3" transform="translate(62.000000, 319.000000)">
                <path d="M23,0 L0,0 L0,0 L33,30.6467391 L33,10 C33,4.4771525 28.5228475,-1.01453063e-15 23,0 Z" id="路径-5" fill="#613AF1"></path>
                <g id="编组" transform="translate(18.000000, 6.099638)" fill="#FFFFFF" fill-rule="nonzero">
                    <path d="M3.46317378,7 C3.32601838,7 3.18886298,6.94732872 3.08462488,6.84308346 L0.157180085,3.9154379 C-0.0523933617,3.70585008 -0.0523933617,3.36677868 0.157180085,3.15719086 C0.366753532,2.94760305 0.705801673,2.94760305 0.91537512,3.15719086 L3.84281991,6.08593375 C4.05239336,6.29552157 4.05239336,6.63459296 3.84281991,6.84418078 C3.73748457,6.94842603 3.60032917,7 3.46317378,7 L3.46317378,7 Z" id="路径"></path>
                    <path d="M3.54125426,7 C3.4026843,7 3.26411434,6.9467786 3.15880117,6.84144458 C2.94706628,6.62966776 2.94706628,6.287055 3.15880117,6.07527818 L9.0751841,0.158832614 C9.286919,-0.0529442046 9.62946393,-0.0529442046 9.84119883,0.158832614 C10.0529337,0.370609433 10.0529337,0.713222191 9.84119883,0.92499901 L3.9248159,6.84144458 C3.81839417,6.94788738 3.67982421,7 3.54125426,7 Z" id="路径"></path>
                </g>
            </g>
        </g>
    </g>
</svg>