<?xml version="1.0" encoding="UTF-8"?>
<svg width="24px" height="24px" viewBox="0 0 24 24" version="1.1" xmlns="http://www.w3.org/2000/svg" xmlns:xlink="http://www.w3.org/1999/xlink">
    <title>编组 2备份</title>
    <defs>
        <linearGradient x1="5.69286964%" y1="104.302713%" x2="94.2975396%" y2="-4.30270609%" id="linearGradient-1">
            <stop stop-color="#CB4EE8" offset="0%"></stop>
            <stop stop-color="#10F4B1" offset="100%"></stop>
        </linearGradient>
    </defs>
    <g id="页面-1" stroke="none" stroke-width="1" fill="none" fill-rule="evenodd">
        <g id="交易-秒合约" transform="translate(-319.000000, -129.000000)" fill="url(#linearGradient-1)">
            <g id="编组-2备份" transform="translate(319.000000, 129.000000)">
                <rect id="矩形" opacity="0.200000003" x="0" y="0" width="24" height="24" rx="5"></rect>
                <path d="M12,5 C15.8656611,5 19,8.13433893 19,12 C19,15.8656611 15.8656611,19 12,19 C8.13433893,19 5,15.8656611 5,12 C5,8.13433893 8.13433893,5 12,5 Z M12,6.37113402 C8.89159534,6.37113402 6.37113402,8.89159534 6.37113402,12 C6.37113402,15.1084047 8.89159534,17.628866 12,17.628866 C15.1084047,17.628866 17.628866,15.1084047 17.628866,12 C17.628866,8.89159534 15.1084047,6.37113402 12,6.37113402 Z M13.1839562,10.5200548 L13.1839562,10.5214642 L11.9577159,14.7696118 C11.8900612,15.0120409 11.8562339,15.1727207 11.8562339,15.2474227 C11.8562339,15.2911163 11.874557,15.331991 11.9097938,15.3700467 C11.9450306,15.4081024 11.9830863,15.4264256 12.023961,15.4264256 C12.0916157,15.4264256 12.1592703,15.3968267 12.2269249,15.3362194 C12.4059278,15.1882249 12.621577,14.9218347 12.872463,14.5356395 L13.0754269,14.6554446 C12.4735825,15.7040915 11.8350918,16.2284149 11.157136,16.2284149 C10.8977932,16.2284149 10.6920103,16.1551224 10.5383779,16.0099468 C10.3847455,15.8647713 10.308634,15.6801305 10.308634,15.457434 C10.308634,15.3094394 10.3424613,15.1233892 10.410116,14.8950548 L11.2402948,12.0380557 C11.3206347,11.7632088 11.3600999,11.5560164 11.3600999,11.4164787 C11.3600999,11.3290915 11.3220441,11.2515706 11.2459327,11.1839159 C11.1698212,11.1162613 11.0669298,11.082434 10.9358489,11.082434 C10.8766511,11.082434 10.804768,11.0838434 10.7201997,11.0880718 L10.7977207,10.8484617 L12.8231314,10.5200548 L13.1839562,10.5200548 Z M12.8132651,7.77158505 C13.0599227,7.77158505 13.2685245,7.85756282 13.4376611,8.02810889 C13.6067977,8.20006443 13.691366,8.40725677 13.691366,8.64968589 C13.691366,8.89211501 13.6053882,9.09930735 13.4348421,9.27126289 C13.2628866,9.44321843 13.0556943,9.52778673 12.8132651,9.52778673 C12.573655,9.52778673 12.3692816,9.44180896 12.197326,9.27126289 C12.0253705,9.09930735 11.9408022,8.89211501 11.9408022,8.64968589 C11.9408022,8.40725677 12.0253705,8.20006443 12.1945071,8.02810889 C12.3636437,7.85756282 12.5694265,7.77158505 12.8132651,7.77158505 Z" id="形状结合"></path>
            </g>
        </g>
    </g>
</svg>