<?xml version="1.0" encoding="UTF-8"?>
<svg width="48px" height="48px" viewBox="0 0 48 48" version="1.1" xmlns="http://www.w3.org/2000/svg" xmlns:xlink="http://www.w3.org/1999/xlink">
    <title>编组 4</title>
    <g id="页面-1" stroke="none" stroke-width="1" fill="none" fill-rule="evenodd">
        <g id="资产-平台资产" transform="translate(-293.000000, -226.000000)">
            <g id="编组-4" transform="translate(293.000000, 226.000000)">
                <rect id="矩形" fill="#613AF1" fill-rule="nonzero" x="0" y="0" width="48" height="48" rx="24"></rect>
                <g id="编组-3" transform="translate(11.000000, 13.000000)" fill="#FFFFFF">
                    <path d="M13.9213297,0 C7.81233883,0 2.84265941,5.15833938 2.84265941,11.499241 C2.84265941,11.8286582 2.85728471,12.1565573 2.8850728,12.4829384 L1.61998371,11.5447825 C1.16074906,11.2032209 0.520160603,11.3140387 0.191091189,11.7907069 C-0.137978226,12.2673751 -0.0312134827,12.9322817 0.428021167,13.2738433 L3.87228104,15.8302422 C4.04778473,15.9607947 4.25546409,16.029107 4.46753105,16.029107 C4.80394395,16.029631 5.11902749,15.8581596 5.30994875,15.5706554 L7.55054583,12.205135 C7.87230259,11.7223946 7.75530014,11.0605241 7.29021536,10.7265527 C6.82513059,10.3925813 6.18746719,10.5140255 5.86571043,10.9967659 L4.93115329,12.3994456 C4.90336521,12.1019075 4.8887399,11.8013332 4.8887399,11.500759 C4.8887399,6.33179328 8.93995003,2.12679031 13.9198672,2.12679031 C18.8997843,2.12679031 22.9509944,6.33179328 22.9509944,11.500759 C22.9509944,16.6697248 18.8997843,20.8747277 13.9198672,20.8747277 C11.483291,20.8747277 9.19735544,19.881922 7.48765701,18.0799947 C7.09131118,17.6625305 6.44194754,17.6564583 6.03975159,18.0693684 C5.63755564,18.4807603 5.63170551,19.1547753 6.02951387,19.5722395 C8.12824547,21.7825226 10.9304544,23 13.9213297,23 C20.0303206,23 25,17.8416606 25,11.500759 C25,5.15985744 20.0303206,0 13.9213297,0 Z" id="路径" fill-rule="nonzero"></path>
                    <path d="M18.4033166,10 L10.5951189,10 C9.98967459,10 9.5,10.4759621 9.5,11.064452 C9.5,11.6529419 9.98967459,12.128904 10.5951189,12.128904 L18.4048811,12.128904 C19.0103254,12.128904 19.5,11.6529419 19.5,11.064452 C19.5,10.4759621 19.008761,10 18.4033166,10 Z" id="路径"></path>
                </g>
            </g>
        </g>
    </g>
</svg>