<?xml version="1.0" encoding="UTF-8"?>
<svg width="30px" height="30px" viewBox="0 0 30 30" version="1.1" xmlns="http://www.w3.org/2000/svg" xmlns:xlink="http://www.w3.org/1999/xlink">
    <title>编组 11</title>
    <g id="页面-1" stroke="none" stroke-width="1" fill="none" fill-rule="evenodd">
        <g id="理财" transform="translate(-130.000000, -239.000000)">
            <g id="编组-11" transform="translate(130.000000, 239.000000)">
                <rect id="矩形备份-3" fill="#D8D8D8" opacity="0" x="0" y="0" width="30" height="30"></rect>
                <g id="Vector" transform="translate(0.000000, 2.000000)">
                    <path d="M7.91119572,16.9293046 C8.61995485,16.316772 9.78809491,16.316772 10.496854,16.9293046 C11.192488,17.5418372 11.192488,18.5583806 10.496854,19.1578806 L3.1073838,25.5438587 C2.73987906,25.8566413 2.28049814,26 1.82111722,26 C1.34861113,26 0.889230211,25.8566413 0.521725474,25.5438587 C-0.173908491,24.9313261 -0.173908491,23.9278153 0.521725474,23.3152827 L7.91119572,16.9293046 Z" fill="#FFFFFF"></path>
                    <path d="M12.1098061,0.715918673 L16.6118704,3.47883165 C17.2287533,3.85677729 18.3312019,4.00013599 19.0530862,3.79161425 L23.3712669,2.59261428 C26.1406776,1.82369039 27.6894475,3.12695123 26.8231863,5.48585334 L25.3400422,9.49989673 C25.090664,10.1775924 25.3400422,11.1680706 25.8781742,11.7024075 L28.7788366,14.5565879 C31.0494908,16.8112291 30.0651031,18.5185008 26.560683,18.3751421 L21.67812,18.1666204 C20.7987337,18.1275226 19.6830943,18.6097291 19.2237134,19.2613595 L16.6511146,22.7931964 C14.800597,25.3215224 12.5823122,25.034805 11.6899319,22.1545986 L10.5610361,18.5054682 C10.3510334,17.8277726 9.52414776,17.0979465 8.73663761,16.8894248 L4.01170796,15.6382944 C1.22904084,14.8824031 0.848542187,13.0708705 3.17156588,11.5720815 L6.80723774,9.23924456 C7.41112677,8.86129892 7.89662678,8.00114676 7.88350161,7.36254895 L7.77850026,2.65777732 C7.72613083,0.116417384 9.66865587,-0.756767378 12.1098061,0.715918673 Z" fill="#613AF1"></path>
                </g>
            </g>
        </g>
    </g>
</svg>