<?xml version="1.0" encoding="UTF-8"?>
<svg width="24px" height="24px" viewBox="0 0 24 24" version="1.1" xmlns="http://www.w3.org/2000/svg" xmlns:xlink="http://www.w3.org/1999/xlink">
    <title>编组 2</title>
    <defs>
        <linearGradient x1="5.69286964%" y1="104.302713%" x2="94.2975396%" y2="-4.30270609%" id="linearGradient-1">
            <stop stop-color="#CB4EE8" offset="0%"></stop>
            <stop stop-color="#10F4B1" offset="100%"></stop>
        </linearGradient>
        <linearGradient x1="7.91749258%" y1="104.302713%" x2="92.0733982%" y2="-4.30270609%" id="linearGradient-2">
            <stop stop-color="#CB4EE8" offset="0%"></stop>
            <stop stop-color="#10F4B1" offset="100%"></stop>
        </linearGradient>
    </defs>
    <g id="页面-1" stroke="none" stroke-width="1" fill="none" fill-rule="evenodd">
        <g id="交易-币币交易" transform="translate(-285.000000, -129.000000)">
            <g id="编组-2" transform="translate(285.000000, 129.000000)">
                <rect id="矩形" fill="url(#linearGradient-1)" opacity="0.200000003" x="0" y="0" width="24" height="24" rx="5"></rect>
                <g id="并集" transform="translate(5.000000, 5.000000)" fill="url(#linearGradient-2)">
                    <path d="M8.54233669,2.17710942 L8.54233669,7.19573222 C8.54233669,7.61494146 8.33273503,7.82454312 7.91352579,7.82454312 L7.41522282,7.82454312 L7.41522282,9.37284164 L6.22878717,9.37284164 L6.22878717,7.82454312 L5.73048419,7.82454312 C5.31127495,7.82454312 5.1016733,7.61494146 5.1016733,7.19573222 L5.1016733,2.17710942 C5.1016733,1.75790018 5.31127495,1.54829852 5.73048419,1.54829852 L6.22878717,1.54829852 L6.22878717,0 L7.41522282,0 L7.41522282,1.54829852 L7.91352579,1.54829852 C8.33273503,1.54829852 8.54233669,1.75790018 8.54233669,2.17710942 Z M7.35590103,2.73473417 L6.28810895,2.73473417 L6.28810895,6.63810747 L7.35590103,6.63810747 L7.35590103,2.73473417 Z M2.31354952,6.26443956 L2.81185249,6.26443956 C3.23106173,6.26443956 3.44066339,6.47404121 3.44066339,6.89325045 L3.44066339,11.8525515 C3.44066339,12.2717607 3.23106173,12.4813624 2.81185249,12.4813624 L2.31354952,12.4813624 L2.31354952,14 L1.12711387,14 L1.12711387,12.4813624 L0.628810895,12.4813624 C0.209601654,12.4813624 0,12.2717607 0,11.8525515 L0,6.89325045 C0,6.47404121 0.209601654,6.26443956 0.628810895,6.26443956 L1.12711387,6.26443956 L1.12711387,4.74580192 L2.31354952,4.74580192 L2.31354952,6.26443956 Z M12.5168961,6.26443956 L13.0151991,6.26443956 C13.4344083,6.26443956 13.64401,6.47404121 13.64401,6.89325045 L13.64401,11.8525515 C13.64401,12.2717607 13.4344083,12.4813624 13.0151991,12.4813624 L12.5168961,12.4813624 L12.5168961,14 L11.3304605,14 L11.3304605,12.4813624 L10.8321575,12.4813624 C10.4129483,12.4813624 10.2033466,12.2717607 10.2033466,11.8525515 L10.2033466,6.89325045 C10.2033466,6.47404121 10.4129483,6.26443956 10.8321575,6.26443956 L11.3304605,6.26443956 L11.3304605,4.74580192 L12.5168961,4.74580192 L12.5168961,6.26443956 Z M1.18643565,11.2949267 L2.25422774,11.2949267 L2.25422774,7.45087521 L1.18643565,7.45087521 L1.18643565,11.2949267 Z M11.3897822,11.2949267 L12.4575743,11.2949267 L12.4575743,7.45087521 L11.3897822,7.45087521 L11.3897822,11.2949267 Z"></path>
                </g>
            </g>
        </g>
    </g>
</svg>