<?xml version="1.0" encoding="UTF-8"?>
<svg width="22px" height="22px" viewBox="0 0 22 22" version="1.1" xmlns="http://www.w3.org/2000/svg" xmlns:xlink="http://www.w3.org/1999/xlink">
    <title>容器</title>
    <defs>
        <rect id="path-1" x="0" y="0" width="22" height="22"></rect>
        <linearGradient x1="13.3823929%" y1="104.302713%" x2="86.6096808%" y2="-4.30270609%" id="linearGradient-3">
            <stop stop-color="#CB4EE8" offset="0%"></stop>
            <stop stop-color="#10F4B1" offset="100%"></stop>
        </linearGradient>
    </defs>
    <g id="页面-1" stroke="none" stroke-width="1" fill="none" fill-rule="evenodd">
        <g id="首页-质押挖矿-质押记录" transform="translate(-334.000000, -60.000000)">
            <g id="容器" transform="translate(334.000000, 60.000000)">
                <mask id="mask-2" fill="white">
                    <use xlink:href="#path-1"></use>
                </mask>
                <g fill-rule="nonzero"></g>
                <path d="M11.0766735,16.5472756 C12.1165172,16.5472756 13.038197,15.8748147 13.3583139,14.8843849 C13.3797984,14.8177834 13.3497204,14.7468849 13.2852671,14.7168068 C13.2208138,14.6888771 13.1456185,14.7125099 13.1112437,14.7726662 C13.106947,14.7791115 12.7417124,15.3699318 11.3130015,15.5632912 C11.1088999,15.5912209 10.9005015,15.6062599 10.6942515,15.6062599 C9.69522808,15.6062599 9.24835308,15.228135 9.2440562,15.2259865 C9.19249371,15.1808693 9.11729839,15.1808693 9.06358745,15.2238381 C9.01202495,15.2668068 8.99913433,15.3441506 9.03565777,15.4021584 C9.47393902,16.1068459 10.2538219,16.5451271 11.0766735,16.5472756 Z" id="路径" fill="#FD8700" fill-rule="nonzero" mask="url(#mask-2)"></path>
                <path d="M17.6702669,7.71396482 C16.6812902,4.86214913 14.121201,2.82415025 11.1088228,2.82415025 C8.10942986,2.82415025 5.55583373,4.84370582 4.56036415,7.67707772 C4.50842672,7.614831 4.45432506,7.55488988 4.39589541,7.50186506 C4.96071616,4.04833303 7.7501951,1.42244958 11.1131512,1.42244958 C14.4609587,1.42244958 17.241783,4.02297317 17.8260799,7.45114583 C17.7654872,7.53414098 17.7135495,7.62174731 17.6702669,7.71396482 Z M19.0682527,6.780266 C19.0552683,6.780266 19.0444486,6.78257159 19.0314642,6.78257159 C18.1896436,2.89792398 14.9695138,0 11.1109874,0 C7.1464211,0 3.85271505,3.05930403 3.12342533,7.10533123 C2.39846377,7.24826797 1.87043205,7.92375851 1.87473376,8.70990988 L1.87473376,11.9259825 C1.87473376,12.8274059 2.55427643,13.5582269 3.39176941,13.5582269 C3.86353548,13.5582269 4.28119988,13.3207675 4.55820016,12.9565096 C5.22906023,14.840045 6.58376412,16.3616275 8.31934384,17.1685287 C8.34098468,17.1224188 8.36695351,17.0786168 8.39508611,17.037119 C8.42321916,17.0002314 8.45351598,16.967956 8.47948482,16.967956 C8.50545365,16.967956 8.53142248,16.9771765 8.55306287,16.9933151 C8.1527111,16.6751672 6.70927984,15.047533 6.39549054,12.7720755 C6.25915462,11.7715188 6.9624755,10.7871007 7.78265614,10.6257207 C9.09840745,10.3652073 10.4076661,10.0678073 11.7234179,9.81190506 C12.56091,9.65052501 13.1322234,9.15946854 13.480638,8.34565196 C13.562872,8.15430158 13.6818955,7.76929476 13.7359979,7.21599205 C13.7489823,7.13299643 13.8160681,7.0707502 13.8961384,7.0707502 C13.9480761,7.0707502 13.9956853,7.09841492 14.0259817,7.14221833 L14.0627711,7.11916383 C14.5821469,7.9214534 15.6100777,9.69893912 15.7572338,11.570947 C15.9260303,13.7126906 15.8329757,15.1789428 14.294326,16.6797774 L14.2878337,16.6866937 C14.2661934,16.7120528 14.2532089,16.7443283 14.2532089,16.7789098 C14.2532089,16.8227137 14.2748493,16.8642115 14.3094741,16.8872664 C14.3224586,16.8918767 14.335443,16.9010991 14.3484274,16.9057093 C14.359248,16.9080154 14.367904,16.9103195 14.3787247,16.9126256 C14.3895453,16.9126256 14.3982013,16.9103195 14.4068573,16.9057093 C14.4284977,16.8941827 14.4501389,16.8803501 14.4717793,16.8665175 C16.0428901,15.9420401 17.224471,14.4135403 17.7719794,12.5922517 C18.0005844,12.9510677 18.3514733,13.2008248 18.7501363,13.2884911 C18.1009155,16.4446231 15.4564285,18.4226816 12.1821991,18.7200807 C11.9744493,18.180611 11.4810424,17.8301857 10.9356978,17.8324918 C10.1955879,17.8324918 9.59397813,18.4572631 9.59397813,19.2272768 C9.59397813,19.9972885 10.1955879,20.6220713 10.9356978,20.6220713 C11.5113388,20.6243659 12.0242223,20.2324428 12.2060041,19.6514753 C15.9952809,19.3241031 19.0336288,16.9241521 19.6676987,13.1962741 C20.2455035,12.942677 20.6220713,12.3432658 20.6220713,11.6769966 L20.6220713,8.42864758 C20.6263791,7.51800326 19.9295517,6.780266 19.0682527,6.780266 Z" id="路径" fill="url(#linearGradient-3)" mask="url(#mask-2)"></path>
            </g>
        </g>
    </g>
</svg>