<?xml version="1.0" encoding="UTF-8"?>
<svg width="16px" height="15px" viewBox="0 0 16 15" version="1.1" xmlns="http://www.w3.org/2000/svg" xmlns:xlink="http://www.w3.org/1999/xlink">
    <title>消息</title>
    <defs>
        <linearGradient x1="5.69286964%" y1="95.0135419%" x2="94.2975396%" y2="4.98646348%" id="linearGradient-1">
            <stop stop-color="#CB4EE8" offset="0%"></stop>
            <stop stop-color="#10F4B1" offset="100%"></stop>
        </linearGradient>
    </defs>
    <g id="页面-1" stroke="none" stroke-width="1" fill="none" fill-rule="evenodd">
        <g id="首页2" transform="translate(-32.000000, -288.000000)" fill="url(#linearGradient-1)">
            <g id="消息" transform="translate(32.000000, 288.000000)">
                <path d="M2.18125789,11.098487 L6.33364628,11.5935442 L6.40725789,11.619487 L6.84856846,13.6885812 C6.94494636,14.1410769 6.59989709,14.5673587 6.13725142,14.5673587 L4.2004343,14.5673587 C3.53648704,14.5673587 2.95680637,14.11776 2.79162327,13.4746888 L2.18125789,11.098487 Z M13.8181818,0.72787005 L13.8193141,3.72890171 C15.0734502,4.05223554 16,5.19094006 16,6.54605187 C16,7.90116368 15.0734502,9.03986819 13.8193141,9.36320203 L13.8181818,11.636961 C13.8181818,12.1374868 13.3243407,12.4884076 12.8516709,12.3237584 L6.66282528,10.1679432 L5.818,10.066 L5.818,2.304 L6.66286239,2.20569006 L12.850799,0.0413769578 C13.3236274,-0.124001062 13.8181818,0.226954303 13.8181818,0.72787005 Z M4.363,2.476 L4.363,9.893 L1.92352608,9.60291328 C0.82622028,9.47209 0,8.54151466 0,7.43643785 L0,4.93027028 C0,3.82399293 0.827965565,2.89280538 1.92665122,2.76342456 L4.363,2.476 Z M13.8194166,5.28681378 L13.8194166,7.80528995 C14.2535002,7.55361692 14.5454545,7.08392919 14.5454545,6.54605187 C14.5454545,6.00817455 14.2535002,5.53848682 13.8194166,5.28681378 Z" id="形状结合"></path>
            </g>
        </g>
    </g>
</svg>