<?xml version="1.0" encoding="UTF-8"?>
<svg width="18px" height="18px" viewBox="0 0 18 18" version="1.1" xmlns="http://www.w3.org/2000/svg" xmlns:xlink="http://www.w3.org/1999/xlink">
    <title>消息</title>
    <defs>
        <rect id="path-1" x="0" y="0" width="18" height="18"></rect>
        <linearGradient x1="5.73714424%" y1="104.302713%" x2="94.2532746%" y2="-4.30270609%" id="linearGradient-3">
            <stop stop-color="#CB4EE8" offset="0%"></stop>
            <stop stop-color="#10F4B1" offset="100%"></stop>
        </linearGradient>
    </defs>
    <g id="页面-1" stroke="none" stroke-width="1" fill="none" fill-rule="evenodd">
        <g id="首页2" transform="translate(-16.000000, -59.000000)">
            <g id="消息" transform="translate(16.000000, 59.000000)">
                <mask id="mask-2" fill="white">
                    <use xlink:href="#path-1"></use>
                </mask>
                <g id="容器" fill-rule="nonzero"></g>
                <path d="M8.99581909,0.026725769 C13.9515381,0.026725769 17.9735718,4.05773735 17.9735718,9.0134573 C17.9735718,13.9691753 13.9515381,17.991209 8.99581909,17.991209 C7.64017868,17.991209 6.3024931,17.6859646 5.08151865,17.0934334 L5.08151865,17.0934334 L5.23414087,17.1652546 L2.45103741,17.1652546 C2.29841566,17.1652546 2.14579391,17.1472988 2.00214982,17.1024113 L2.00214982,17.1024113 L1.89441681,17.0664997 C1.08641899,16.779211 0.646509051,15.90837 0.888908386,15.0644608 L0.888908386,15.0644608 L0.915841639,14.9746819 L1.36472929,13.74473 L1.25699627,13.565176 C0.475931823,12.2364693 0.044999674,10.7371845 0.0180664062,9.20198822 L0.0180664062,9.20198822 L0.0180664062,9.00447845 C0.0180664062,4.04875851 4.04009914,0.026725769 8.99581909,0.026725769 Z M8.99581909,1.45418978 C4.83014202,1.45418978 1.45450687,4.82982445 1.45450687,8.98652458 C1.45450687,10.5037642 1.90339446,11.9761152 2.75628114,13.2329998 C2.88196969,13.4305115 2.91788077,13.6729097 2.83708096,13.8883743 L2.83708096,13.8883743 L2.27148223,15.4325504 L2.26250482,15.468462 C2.25352716,15.4864159 2.25352716,15.5043716 2.25352716,15.5223274 C2.25352716,15.6300602 2.34330463,15.7108593 2.44205976,15.7108593 L2.44205976,15.7108593 L5.39574051,15.7108593 C5.50347328,15.7108593 5.61120605,15.737793 5.70996141,15.7826805 C6.7244482,16.2764587 7.8376894,16.5368137 8.99581909,16.5368137 C13.1614952,16.5368137 16.5371304,13.1611786 16.5371304,8.99550247 C16.5371304,4.82982492 13.1614952,1.45418978 8.99581909,1.45418978 Z M5.03631461,7.92716599 C5.6313076,7.92716599 6.11364484,8.4095028 6.11364484,9.00449622 C6.11364484,9.59948945 5.6313076,10.0818264 5.03631461,10.0818264 C4.44132155,10.0818264 3.95898438,9.59948945 3.95898438,9.00449622 C3.95898438,8.4095028 4.44132155,7.92716599 5.03631461,7.92716599 Z M12.9367052,7.92716599 C13.5316982,7.92716599 14.0140355,8.4095028 14.0140355,9.00449622 C14.0140355,9.59948945 13.5316982,10.0818264 12.9367052,10.0818264 C12.3417122,10.0818264 11.859375,9.59948945 11.859375,9.00449622 C11.859375,8.4095028 12.3417122,7.92716599 12.9367052,7.92716599 Z M8.9865092,7.92642403 C9.58179307,7.92642403 10.06425,8.40921408 10.0638402,9.00449789 C10.0642514,9.59978175 9.58179307,10.0825727 8.9865092,10.0825727 C8.39122605,10.0825727 7.90876839,9.59978175 7.90917969,9.00449789 C7.90876839,8.40921476 8.3912254,7.92642403 8.9865092,7.92642403 Z" id="形状结合" fill="url(#linearGradient-3)" mask="url(#mask-2)"></path>
            </g>
        </g>
    </g>
</svg>