<?xml version="1.0" encoding="UTF-8"?>
<svg width="130px" height="167px" viewBox="0 0 130 167" version="1.1" xmlns="http://www.w3.org/2000/svg" xmlns:xlink="http://www.w3.org/1999/xlink">
    <title>undraw_the_search_s0xf备份</title>
    <g id="页面-1" stroke="none" stroke-width="1" fill="none" fill-rule="evenodd">
        <g id="初级认证-审核中" transform="translate(-129.000000, -214.000000)">
            <g id="undraw_the_search_s0xf备份" transform="translate(129.000000, 214.000000)">
                <path d="M84,39.6854385 L83.0743803,39.6854385 L83.0743803,14.548556 C83.0743854,6.51361903 76.5037345,0 68.3984173,0 L14.6760116,0 C10.7837003,0 7.05080416,1.53276975 4.29851797,4.26114435 C1.54623178,6.98951894 0,10.6899943 0,14.5485078 L0,152.451453 C0,156.309968 1.54620922,160.010449 4.29848893,162.738831 C7.05076864,165.467213 10.7836623,167 14.6759745,167 L68.3983456,167 C76.5036611,167 83.0743341,160.486434 83.0743571,152.451499 L83.0743571,57.5783062 L84,57.5783062 L84,39.6854385 Z" id="路径" fill="#161A33"></path>
                <path d="M69.1702111,4 L62.2408885,4 C62.8879935,5.59733112 62.7028898,7.41415992 61.7471721,8.84594059 C60.7914545,10.2777213 59.1905344,11.1365722 57.4771308,11.1367038 L27.0655476,11.1367038 C25.3521388,11.1365758 23.7512128,10.2777227 22.7954939,8.84593647 C21.839775,7.41415025 21.6546758,5.59731467 22.3017899,4 L15.8297889,4 C9.84866901,4 5,8.88166776 5,14.903522 L5,153.096455 C5,159.118312 9.84865032,164 15.8297729,164 L69.1702111,164 C72.0424479,164 74.797046,162.851241 76.8280254,160.806433 C78.8590048,158.761624 80,155.988267 80,153.096469 L80,153.096469 L80,14.9035335 C80,12.0117374 78.8590019,9.2383833 76.8280224,7.19357751 C74.797043,5.14877171 72.0424458,4 69.1702111,4 Z" id="路径" fill="#FFFFFF" fill-rule="nonzero" opacity="0.0434456759"></path>
                <circle id="abdb74b7-e321-430b-89c2-b563f66442fc" fill="#E6E6E6" fill-rule="nonzero" opacity="0.200000003" cx="20" cy="102" r="5"></circle>
                <path d="M30.8204693,99.0001352 C30.3651489,99.0092 30,99.4541765 30,99.9999726 C30,100.545769 30.3651489,100.990745 30.8204693,100.99981 L70.1495711,100.99981 C70.6102715,101.010466 70.9909506,100.571483 71,100.019314 C71.0087324,99.4671451 70.6424685,99.0108852 70.181768,99.000229 L70.1769646,99.0001379 C70.1678457,98.999954 70.1587161,98.999954 70.1495757,99.0001379 L30.8204693,99.0001352 Z" id="addd02b1-b85b-481a-baea-1b0ba5ed9f4a-312" fill="#E6E6E6" fill-rule="nonzero" opacity="0.200000003"></path>
                <path d="M30.8205598,105.000127 C30.3651892,105.009192 30,105.454191 30,106.000014 C30,106.545838 30.3651892,106.990836 30.8205598,106.999902 L70.1539992,106.999902 C70.6139652,107.007553 70.9923347,106.567621 71,106.016387 C71.0074358,105.465153 70.6413188,105.010574 70.1813911,105.000127 C70.1722712,104.999958 70.1631405,104.999958 70.1539992,105.000127 L30.8205598,105.000127 Z" id="a42dc2a4-5fb2-4ea8-b2b3-ce81bc256782-313" fill="#E6E6E6" fill-rule="nonzero" opacity="0.200000003"></path>
                <path d="M74.8036003,138 L10.1963997,138 C9.53596308,137.999253 9.00076395,137.476228 9,136.830814 L9,121.169186 C9.00076395,120.523772 9.53596308,120.000747 10.1963997,120 L74.8036003,120 C75.4640369,120.000747 75.999236,120.523772 76,121.169186 L76,136.83104 C75.9991088,137.476366 75.4639468,137.999254 74.8036003,138 Z M10.1963997,120.467629 C9.80008057,120.468003 9.47851366,120.781882 9.47851366,121.169186 L9.47851366,136.83104 C9.47851366,137.218344 9.80008057,137.532223 10.1963997,137.532597 L74.8036003,137.532597 C75.1999194,137.532223 75.5214863,137.218344 75.5214863,136.83104 L75.5214863,121.169186 C75.5214863,120.781882 75.1999194,120.468003 74.8036003,120.467629 L10.1963997,120.467629 Z" id="b84687c4-e3b4-4975-8361-bf73c33c9ee5-314" fill="#E6E6E6" fill-rule="nonzero" opacity="0.200000003"></path>
                <circle id="fe3713e7-4e14-41f8-af1d-48b338e5371c" fill="#E6E6E6" fill-rule="nonzero" opacity="0.200000003" cx="20" cy="129" r="5"></circle>
                <path d="M30.8205598,126.000138 C30.3651892,126.009203 30,126.454199 30,127.00002 C30,127.54584 30.3651892,127.990836 30.8205598,127.999902 L70.1539992,127.999902 C70.6139652,128.007553 70.9923347,127.567624 71,127.016392 C71.0074358,126.465161 70.6413188,126.010585 70.1813911,126.000138 C70.1722712,125.999954 70.1631405,125.999954 70.1539992,126.000138 L30.8205598,126.000138 Z" id="e34cf46a-1d6c-4c41-b5e1-331fa5bf8d4c-315" fill="#E6E6E6" fill-rule="nonzero" opacity="0.200000003"></path>
                <path d="M30.8205598,131.000127 C30.3651892,131.009192 30,131.454191 30,132.000014 C30,132.545838 30.3651892,132.990836 30.8205598,132.999902 L70.1539992,132.999902 C70.6139652,133.007553 70.9923347,132.567621 71,132.016387 C71.0074358,131.465153 70.6413188,131.010574 70.1813911,131.000127 C70.1722712,130.999958 70.1631405,130.999958 70.1539992,131.000127 L30.8205598,131.000127 Z" id="e105039f-b7a6-49c8-8f81-87505f1b0ae5-316" fill="#E6E6E6" fill-rule="nonzero" opacity="0.200000003"></path>
                <path d="M41.4987194,79 C29.0782029,79.0051736 19.0051847,68.9400367 19,56.518878 L19,56.5001114 C19,56.4530003 19,56.4033736 19.0027442,56.3562625 C19.071349,44.0344299 29.1635742,34 41.4987194,34 C53.924419,33.9985854 63.9985855,44.0709792 64,56.4973213 C64.0014145,68.9236633 53.9295415,78.9983507 41.5038419,79 L41.4987194,79 L41.4987194,79 Z M41.4987194,34.473169 C29.3965318,34.5002452 19.5730924,44.2679829 19.4765748,56.3704416 C19.4740593,56.4207544 19.4740593,56.4619194 19.4740593,56.4994253 C19.4725438,68.6657062 29.3335247,78.5296543 41.4991766,78.5311699 C53.6648286,78.5326855 63.5282667,68.6711948 63.5297823,56.5049138 C63.5312979,44.3386329 53.6703171,34.4746847 41.5046651,34.473169 L41.4987194,34.473169 L41.4987194,34.473169 Z" id="ad9187ec-89e0-4b9d-a4fb-dc654c09bafe-317" fill="#E6E6E6" fill-rule="nonzero" opacity="0.200000003"></path>
                <path d="M79.3950179,122.320386 C79.3377964,122.229719 79.2903187,122.133045 79.2534042,122.032033 L78.0922604,118.865281 C77.8108814,118.095074 78.1946855,117.23823 78.95025,116.949816 L104.865947,107.094062 C105.622152,106.807297 106.463554,107.198205 106.74662,107.967805 L107.907638,111.134773 C108.043261,111.504652 108.02905,111.914254 107.868133,112.273461 C107.707215,112.632668 107.412774,112.912052 107.04959,113.050144 L81.1341351,122.905868 C80.491347,123.150071 79.7682754,122.906642 79.3950224,122.32038 L79.3950179,122.320386 Z" id="路径" fill="#613AF1" fill-rule="nonzero"></path>
                <path d="M104.821005,106.086598 L93.9877803,110.350851 C93.2787029,110.56138 92.8621924,111.284591 93.0416144,111.993733 L94.2988199,116.96262 C94.3993798,117.360065 94.6749434,117.69218 95.0498697,117.867801 C95.4247961,118.043422 95.8596883,118.044095 96.2351704,117.869635 L107.098257,112.82233 C107.81473,112.556953 108.178976,111.769682 107.912995,111.061382 L106.607173,106.891064 C106.33845,106.182518 105.53926,105.822574 104.821005,106.086598 L104.821005,106.086598 Z" id="路径" fill="#2F2E41" fill-rule="nonzero"></path>
                <path d="M125.299042,137.990118 C124.575973,138.070532 123.89233,137.653377 123.654761,136.986788 L114.084794,110.105289 C113.950656,109.728585 113.976464,109.315677 114.156539,108.957411 C114.336613,108.599145 114.656203,108.324872 115.044992,108.194936 L118.373737,107.082237 C119.183293,106.812288 120.065524,107.228689 120.345209,108.012744 L129.915331,134.894452 C130.193482,135.678869 129.763905,136.533432 128.955016,136.804818 L125.626361,137.917281 C125.520267,137.952864 125.410529,137.977283 125.299042,137.990118 L125.299042,137.990118 Z" id="路径" fill="#613AF1" fill-rule="nonzero"></path>
                <path d="M121.492704,106.981884 L124.896365,118.638129 C125.17041,119.354689 124.88323,120.181116 124.243992,120.515482 L119.764905,122.858365 C119.406637,123.045764 118.990728,123.04727 118.631342,122.862469 C118.271955,122.677668 118.006856,122.325978 117.908812,121.903938 L115.072308,109.693873 C114.834756,108.934223 115.201621,108.10678 115.8929,107.843073 L119.804648,106.0797 C120.49777,105.818049 121.25306,106.221715 121.492704,106.981884 Z" id="路径" fill="#2F2E41" fill-rule="nonzero"></path>
                <path d="M110.595064,166 L107.404936,166 C106.629383,165.999054 106.000897,165.336337 106,164.518542 L106,136.481458 C106.000897,135.663663 106.629383,135.000946 107.404936,135 L110.595064,135 C111.370617,135.000946 111.999103,135.663663 112,136.481458 L112,164.518542 C111.999103,165.336337 111.370617,165.999054 110.595064,166 L110.595064,166 Z" id="路径" fill="#2F2E41" fill-rule="nonzero"></path>
                <path d="M116.595089,166 L113.404911,166 C112.629372,165.999054 112.000897,165.336337 112,164.518542 L112,136.481458 C112.000897,135.663663 112.629372,135.000946 113.404911,135 L116.595089,135 C117.370628,135.000946 117.999103,135.663663 118,136.481458 L118,164.518542 C117.999103,165.336337 117.370628,165.999054 116.595089,166 L116.595089,166 Z" id="路径" fill="#2F2E41" fill-rule="nonzero"></path>
                <path d="M104.554356,140 C103.696308,139.999002 103.000963,139.278552 103,138.389525 L103,113.324937 C103,108.174917 107.029437,104 112,104 C116.970563,104 121,108.174917 121,113.324937 L121,138.389525 C120.999038,139.278553 120.303692,139.999003 119.445644,140 L104.554356,140 Z" id="路径" fill="#CCBEFF" fill-rule="nonzero"></path>
                <path d="M122,146 L114,146 L114,102 L114.148612,102.039467 C118.779427,103.276571 121.992025,107.369825 122,112.043121 L122,146 Z" id="路径" fill="#2F2E41" fill-rule="nonzero"></path>
                <path d="M109,146 L101,146 L101,112.043121 C101.008011,107.369836 104.220596,103.276601 108.851391,102.039467 L109,102 L109,146 Z" id="路径" fill="#2F2E41" fill-rule="nonzero"></path>
                <circle id="椭圆形" fill="#613AF1" fill-rule="nonzero" cx="112.5" cy="86.5" r="12.5"></circle>
                <path d="M125.81295,83.7106757 C125.81295,83.7106757 126.503597,64.4666804 117.52518,70.7267753 C117.52518,70.7267753 112.345324,53.2216952 99.6834532,79.4213515 L96,83.1310373 C96,83.1310373 112.57554,80.8124837 128,88 L125.81295,83.7106757 Z" id="路径" fill="#2F2E41" fill-rule="nonzero"></path>
                <path d="M111.98796,93 C111.27231,92.9784318 110.381647,92.9514686 109.695482,92.4073971 C109.281893,92.0660154 109.028353,91.5437624 109.002742,90.9804626 C108.977585,90.5795593 109.126582,90.1889498 109.405463,89.9246872 C109.763843,89.5959783 110.287169,89.5188882 110.851137,89.6987791 L110.266822,85.0637906 L110.695756,85 L111.382681,90.4490186 L111.024487,90.270608 C110.609213,90.0638596 110.039167,89.9586479 109.684935,90.2835738 C109.50862,90.4557589 109.416352,90.7073329 109.435402,90.9639392 C109.456648,91.3830319 109.644798,91.7713641 109.95088,92.0278587 C110.484854,92.4512244 111.194795,92.5058369 112,92.5302765 L111.98796,93 Z" id="路径" fill="#2F2E41" fill-rule="nonzero"></path>
                <rect id="矩形" fill="#2F2E41" fill-rule="nonzero" x="105" y="85" width="3" height="1"></rect>
                <rect id="矩形" fill="#2F2E41" fill-rule="nonzero" x="113" y="85" width="3" height="1"></rect>
                <path d="M84.1779131,123.87066 C83.4670361,124.193524 82.6234013,123.891114 82.2935708,123.195197 L74.1320461,105.973902 C73.8023592,105.277995 74.1112904,104.452202 74.8220976,104.12935 C75.5329047,103.806499 76.3764744,104.108822 76.7063567,104.804641 L84.8678813,122.025935 C85.1976804,122.721866 84.8887757,123.547765 84.1779131,123.87066 Z" id="路径" fill="#3F3D56" fill-rule="nonzero"></path>
                <path d="M74.8036003,112 L10.1963997,112 C9.53596308,111.999253 9.00076395,111.476228 9,110.830814 L9,95.169186 C9.00076395,94.5237719 9.53596308,94.0007466 10.1963997,94 L74.8036003,94 C75.4640369,94.0007466 75.999236,94.5237719 76,95.169186 L76,110.83104 C75.9991088,111.476366 75.4639468,111.999254 74.8036003,112 Z M10.1963997,94.4676292 C9.80008057,94.4680027 9.47851366,94.7818817 9.47851366,95.169186 L9.47851366,110.83104 C9.47851366,111.218344 9.80008057,111.532223 10.1963997,111.532597 L74.8036003,111.532597 C75.1999194,111.532223 75.5214863,111.218344 75.5214863,110.83104 L75.5214863,95.169186 C75.5214863,94.7818817 75.1999194,94.4680027 74.8036003,94.4676292 L10.1963997,94.4676292 Z" id="f3818c68-126c-4685-b4e0-2450731ccc2a-311" fill="#E6E6E6" fill-rule="nonzero" opacity="0.200000003"></path>
                <circle id="椭圆形" fill="#CCBEFF" fill-rule="nonzero" cx="72" cy="97" r="9"></circle>
                <path d="M69.5450565,101 C69.5288485,101 69.512643,100.999882 69.4963784,100.999531 L64.4173757,100.999531 C63.0765323,100.977927 62.0005355,99.8657731 62,98.5009231 C61.9994649,97.1360732 63.074589,96.0230451 64.415415,96.0003516 L69.4986864,96.0003516 C69.5236018,95.9998828 69.5507072,95.9998828 69.5775881,96.0003516 C70.927155,96.0192926 72.0088818,97.1429521 72,98.5166101 C71.9910082,99.8902682 70.8947562,100.99925 69.5450612,101 L69.5450565,101 Z" id="路径" fill="#613AF1" fill-rule="nonzero"></path>
                <path d="M77.0322581,106 C76.497789,106 76.0645161,105.573284 76.0645161,105.046902 L76.0645161,92.9061952 L63.9677419,92.9061952 C63.4332728,92.9061952 63,92.4794789 63,91.9530976 C63,91.4267163 63.4332728,91 63.9677419,91 L77.0322581,91 C77.5667272,91 78,91.4267163 78,91.9530976 L78,105.046902 C78,105.573284 77.5667272,106 77.0322581,106 L77.0322581,106 Z" id="路径" fill="#613AF1" fill-rule="nonzero"></path>
                <path d="M76.6313254,106.975957 C71.1207317,109.532161 64.5809143,107.137987 62.0242339,101.628418 C59.4675536,96.1188501 61.8621729,89.5802491 67.3727662,87.0240438 C72.8833594,84.4678386 79.4231772,86.8620118 81.9798587,92.3715797 C84.5291145,97.8814567 82.136449,104.414723 76.6313254,106.975957 Z M68.5300849,89.5180323 C64.3971402,91.4351868 62.6011763,96.3391378 64.5186872,100.471314 C66.436198,104.60349 71.3410614,106.39912 75.4740064,104.481966 C79.6069515,102.564812 81.4029162,97.6608617 79.485406,93.5286854 C77.5641279,89.4006105 72.6632679,87.6064444 68.5300941,89.5180323 L68.5300849,89.5180323 Z" id="形状" fill="#3F3D56" fill-rule="nonzero"></path>
            </g>
        </g>
    </g>
</svg>