<?xml version="1.0" encoding="UTF-8"?>
<svg width="30px" height="30px" viewBox="0 0 30 30" version="1.1" xmlns="http://www.w3.org/2000/svg" xmlns:xlink="http://www.w3.org/1999/xlink">
    <title>编组 10</title>
    <g id="页面-1" stroke="none" stroke-width="1" fill="none" fill-rule="evenodd">
        <g id="理财" transform="translate(-216.000000, -239.000000)">
            <g id="编组-10" transform="translate(216.000000, 239.000000)">
                <rect id="矩形备份-7" fill="#D8D8D8" opacity="0" x="0" y="0" width="30" height="30"></rect>
                <g id="3" fill-rule="nonzero">
                    <g id="编组">
                        <g id="Vector" fill="#613AF1">
                            <path d="M12.2064198,2.09497207 C6.62199669,2.09497207 2.0949233,6.62215084 2.0949233,12.2067039 C2.0949233,17.7912011 6.62199669,22.3184358 12.2064198,22.3184358 C17.790787,22.3184358 22.3179162,17.7912011 22.3179162,12.2067039 C22.3179162,6.62215084 17.790787,2.09497207 12.2064198,2.09497207 Z M12.2064198,0 C18.947883,0 24.4128396,5.4651257 24.4128396,12.2067039 C24.4128396,18.948324 18.947883,24.4134078 12.2064198,24.4134078 C5.46499849,24.4134078 0,18.948324 0,12.2067039 C0,5.4651257 5.46499849,0 12.2064198,0 Z"></path>
                        </g>
                        <path d="M12.7439525,17.4914438 C12.5866089,17.6489384 12.3731178,17.7374302 12.1504973,17.7374302 C11.9278768,17.7374302 11.7143857,17.6489384 11.5570421,17.4914438 L6.81007115,12.7443131 C6.65258185,12.5869643 6.56409301,12.373466 6.56409301,12.150838 C6.56409301,11.92821 6.65258185,11.7147117 6.81007115,11.5573628 L11.5570421,6.81023222 C11.7143857,6.65273762 11.9278768,6.56424581 12.1504973,6.56424581 C12.3731178,6.56424581 12.5866089,6.65273762 12.7439525,6.81023222 L17.491594,11.5573628 C17.818825,11.8853475 17.818825,12.4163285 17.491594,12.7443131 L12.7439525,17.4914438 L12.7439525,17.4914438 Z" id="路径" fill="#613AF1"></path>
                        <path d="M26.0615442,15.3631285 C26.2944997,15.3631285 26.5097181,15.4392458 26.6835968,15.5678771 C28.8945369,17.1638687 30,19.3209497 30,22.0391061 C30,26.4357542 26.4358372,30 22.0392915,30 C19.2972743,30 17.1294476,28.8785335 15.5358116,26.6356145 C15.4098368,26.4627095 15.3355369,26.2498603 15.3355369,26.0195531 C15.3355369,25.4410615 15.8045204,24.972067 16.3829985,24.972067 C16.7406718,24.972067 17.0564465,25.1513966 17.2454086,25.425 C18.4215405,27.078352 20.0195061,27.9050279 22.0392915,27.9050279 C25.2788808,27.9050279 27.9050767,25.2787709 27.9050767,22.0391061 C27.9050767,20.0364106 27.0900119,18.4460894 25.4598822,17.2681564 C25.1901958,17.0786313 25.0140825,16.7652235 25.0140825,16.4106145 C25.0140825,15.8321229 25.483066,15.3631285 26.0615442,15.3631285 L26.0615442,15.3631285 Z" id="Vector" fill="#FFFFFF"></path>
                    </g>
                </g>
            </g>
        </g>
    </g>
</svg>