<?xml version="1.0" encoding="UTF-8"?>
<svg width="16px" height="16px" viewBox="0 0 16 16" version="1.1" xmlns="http://www.w3.org/2000/svg" xmlns:xlink="http://www.w3.org/1999/xlink">
    <title>2</title>
    <g id="页面-1" stroke="none" stroke-width="1" fill="none" fill-rule="evenodd">
        <g id="交易-U本位合约" transform="translate(-323.000000, -691.000000)">
            <g id="2" transform="translate(323.000000, 691.000000)">
                <rect id="矩形" fill="#D8D8D8" opacity="0" x="0" y="0" width="16" height="16"></rect>
                <g id="编组" transform="translate(3.000000, 3.000000)" fill="#00E291" fill-rule="nonzero">
                    <path d="M6.34078614,10.3500683 L4.95206358,8.90744535 C6.76344083,8.66700819 8.21254263,7.16427596 8.21254263,5.36099727 C8.21254263,3.61782787 6.88419931,2.11509563 5.13320131,1.81454919 L3.86523724,0.552254103 L4.40865041,0.552254103 C7.18609553,0.552254103 9.42012745,2.71618853 9.42012745,5.36099727 C9.42012745,7.16427596 8.33330111,8.78722678 6.82382008,9.56864755 L6.82382008,10.7708333 L6.34078614,10.3500683 L6.34078614,10.3500683 Z M5.01244283,10.1096312 C4.83130511,10.1096312 4.58978814,10.1697404 4.34827116,10.1697404 C1.57082605,10.1697404 -0.663205879,8.00580601 -0.663205879,5.36099727 C-0.663205879,3.55771858 0.423620469,1.93476776 1.93310151,1.15334699 L1.93310151,-0.229166667 L2.71803164,0.552254103 L3.92561648,1.75443989 C2.05385999,1.93476776 0.604758193,3.49760928 0.604758193,5.36099727 C0.604758193,7.16427596 1.99348074,8.6670082 3.80485799,8.90744535 L5.01244283,10.1096312 L5.01244283,10.1096312 Z" id="形状"></path>
                </g>
            </g>
        </g>
    </g>
</svg>