<?xml version="1.0" encoding="UTF-8"?>
<svg width="16px" height="16px" viewBox="0 0 16 16" version="1.1" xmlns="http://www.w3.org/2000/svg" xmlns:xlink="http://www.w3.org/1999/xlink">
    <title>记录</title>
    <g id="页面-1" stroke="none" stroke-width="1" fill="none" fill-rule="evenodd">
        <g id="IEO申购" transform="translate(-283.000000, -64.000000)" fill="#613AF1" fill-rule="nonzero">
            <g id="记录" transform="translate(283.000000, 64.000000)">
                <path d="M7.99994151,0 C3.58172936,0 0,3.58174607 0,8.00005849 C0,12.4182706 3.58174607,16 7.99994151,16 C12.4182539,16 16,12.4182539 16,8.00005849 C16,3.58174607 12.4182539,0 7.99994151,0 Z M11.9718601,11.9718601 C11.8801413,12.0635789 11.7599276,12.1094551 11.6398307,12.1094551 C11.5196169,12.1094551 11.3994199,12.0635789 11.3077178,11.9718601 L7.5304509,8.19449299 L7.5304509,3.41751126 C7.5304509,3.15798116 7.74086264,2.94780339 8.00004178,2.94780339 C8.25933791,2.94780339 8.46974966,3.15799787 8.46974966,3.41751126 L8.46974966,7.80560729 L11.9718601,11.3077178 C12.155281,11.4909381 12.155281,11.7885228 11.9718601,11.9718769 L11.9718601,11.9718601 Z" id="形状"></path>
            </g>
        </g>
    </g>
</svg>