<?xml version="1.0" encoding="UTF-8"?>
<svg width="48px" height="48px" viewBox="0 0 48 48" version="1.1" xmlns="http://www.w3.org/2000/svg" xmlns:xlink="http://www.w3.org/1999/xlink">
    <title>编组 7</title>
    <g id="页面-1" stroke="none" stroke-width="1" fill="none" fill-rule="evenodd">
        <g id="资产-平台资产" transform="translate(-35.000000, -226.000000)" fill-rule="nonzero">
            <g id="编组-7" transform="translate(35.000000, 226.000000)">
                <rect id="矩形" fill="#613AF1" x="0" y="0" width="48" height="48" rx="24"></rect>
                <g id="编组" transform="translate(12.000000, 12.000000)" fill="#FFFFFF">
                    <path d="M18.33685,0.450666523 L6.24523817,0.450666523 C3.08465845,0.450666523 0.512197964,3.02312701 0.512197964,6.18370673 L0.512197964,18.276815 C0.512197964,21.4373947 3.08465845,24.0098552 6.24523817,24.0098552 L18.3383465,24.0098552 C21.4989262,24.0098552 24.0713867,21.4388912 24.0713867,18.276815 L24.0713867,6.18221024 C24.0698902,3.02163052 21.4989262,0.450666523 18.33685,0.450666523 Z M21.9748089,18.2753185 C21.9748089,20.2806106 20.3436385,21.9132775 18.33685,21.9132775 L6.24523817,21.9132775 C4.23994611,21.9132775 2.60727922,20.2821071 2.60727922,18.2753185 L2.60727922,6.18221024 C2.60727922,4.17691818 4.23844962,2.54425129 6.24523817,2.54425129 L18.3383465,2.54425129 C20.3436385,2.54425129 21.9763054,4.1754217 21.9763054,6.18221024 L21.9763054,18.2753185 L21.9748089,18.2753185 Z" id="形状"></path>
                    <path d="M16.339638,5.16250426 L8.24421286,5.16250426 C7.61662281,5.16250426 7.10903705,5.6455379 7.10903705,6.24277119 C7.10903705,6.84000448 7.61662281,7.32303812 8.24421286,7.32303812 L16.339638,7.32303812 C16.9672281,7.32303812 17.4748138,6.84000448 17.4748138,6.24277119 C17.4748138,5.6455379 16.9656064,5.16250426 16.339638,5.16250426 L16.339638,5.16250426 Z M13.1076303,9.13634332 C12.8965884,8.92941407 12.6078827,8.81063718 12.3048989,8.80609029 C11.9984014,8.7983741 11.7097424,8.91566022 11.494059,9.11782446 L7.44634643,12.920364 C7.23206002,13.1216854 7.11063701,13.395798 7.1087912,13.6823484 C7.10698713,13.9688989 7.22490988,14.2443919 7.43661636,14.4481701 C7.64817063,14.6520914 7.93621614,14.7676412 8.23733164,14.7693778 C8.53844714,14.7711145 8.82794323,14.6588957 9.04207928,14.4574296 L11.1567496,12.4712817 L11.1567496,17.275383 C11.1567496,17.8726163 11.6643354,18.3556499 12.2919254,18.3556499 C12.9195155,18.3556499 13.4271012,17.8726163 13.4271012,17.275383 L13.4271012,12.5592462 L15.3358183,14.4404539 C15.5496443,14.6518486 15.8448149,14.7711167 16.1531449,14.770707 C16.4369388,14.770707 16.7207328,14.6703965 16.9412812,14.466689 C17.3921082,14.0515578 17.4050816,13.3679032 16.9688498,12.9388829 L13.1076303,9.13634332 Z" id="形状"></path>
                </g>
            </g>
        </g>
    </g>
</svg>