<?xml version="1.0" encoding="UTF-8"?>
<svg width="30px" height="30px" viewBox="0 0 30 30" version="1.1" xmlns="http://www.w3.org/2000/svg" xmlns:xlink="http://www.w3.org/1999/xlink">
    <title>编组 8</title>
    <g id="页面-1" stroke="none" stroke-width="1" fill="none" fill-rule="evenodd">
        <g id="理财" transform="translate(-301.000000, -239.000000)">
            <g id="编组-8" transform="translate(301.000000, 239.000000)">
                <rect id="矩形备份-6" fill="#D8D8D8" opacity="0" x="0" y="0" width="30" height="30"></rect>
                <g id="4" transform="translate(1.000000, 0.000000)">
                    <path d="M6.77294605,4.70769748 C6.72787115,4.78353321 6.69782121,4.87453609 6.65274631,4.98070612 L6.56259651,5.22338047 L6.50249665,5.35988479 L5,9 C5.57094873,8.87866283 6.15692242,8.83316139 6.75792108,8.83316139 L10.378938,8.83316139 L14,0.30922493 C10.4690878,-0.66147246 8.51584216,0.612567865 6.77294605,4.70769748 Z" id="Vector" fill="#FFFFFF"></path>
                    <path d="M24.8114847,6.18850987 C24.7798123,6.04308797 24.7323037,5.91382406 24.6689589,5.76840215 C24.6056141,5.52603232 24.4947607,5.29982047 24.3522349,5.07360862 C24.2255453,4.86355476 24.0988557,4.68581688 23.9563299,4.49192101 C23.1170114,3.45780969 21.7550983,2.60143627 19.8072459,1.77737882 L16.307446,0.274685817 C16.069903,0.193895871 15.8323601,0.0807899461 15.6106533,0 L15.5631447,0.113105925 L12,8.56373429 L21.9134603,8.56373429 C22.8953046,8.56373429 23.8613127,8.70915619 24.8114847,8.98384201 L24.8431571,9 C25.0648638,7.9497307 25.0490276,7.01256732 24.8114847,6.18850987 Z" id="Vector" fill="#FFFFFF"></path>
                    <path d="M21.7499889,11 C22.4779613,11 23.1762206,11.1048897 23.8447667,11.2996848 C26.8160827,12.2137084 29,15.0007768 29,18.3122936 L29,21.2342202 C29,21.533905 28.9851434,21.8335898 28.9702868,22.1182903 C28.6880118,27.3627739 25.7909787,30 20.294044,30 L8.705956,30 C8.3345415,30 7.99284015,29.9700315 7.65113881,29.9250788 C2.9267463,29.6104098 0.401127666,27.0630892 0.074282901,22.2981012 C0.0297131604,21.9384794 0,21.593842 0,21.2342202 L0,18.3122936 C0,15.3004616 1.81250279,12.7081883 4.39754774,11.5843853 C5.28894255,11.1947951 6.23976369,11 7.25001114,11 L21.7499889,11 Z M15.1537118,13.5198573 C12.93815,13.5198573 11.1424352,15.3310023 11.1424352,17.5656018 C11.1424352,18.8602401 11.7561605,19.9991172 12.6941307,20.7401627 C10.2205101,21.728673 8.46825072,24.1588168 8.46825072,27.0056724 L8.46825072,27.0056724 L9.80534294,27.0056724 C9.80534294,24.0266558 12.2000751,21.6113464 15.1537118,21.6113464 C18.1073485,21.6113464 20.5020807,24.0266558 20.5020807,27.0056724 L20.5020807,27.0056724 L21.8391729,27.0056724 C21.8391729,24.1588168 20.0869136,21.728673 17.613293,20.7401627 C18.5512631,19.9991172 19.1649885,18.8602401 19.1649885,17.5656018 C19.1649885,15.3310023 17.3692736,13.5198573 15.1537118,13.5198573 Z M15.1537118,14.8684388 C16.6305302,14.8684388 17.8278963,16.0760936 17.8278963,17.5656018 C17.8278963,19.0551101 16.6305302,20.2627649 15.1537118,20.2627649 C13.6768935,20.2627649 12.4795274,19.0551101 12.4795274,17.5656018 C12.4795274,16.0760936 13.6768935,14.8684388 15.1537118,14.8684388 Z" id="形状结合" fill="#613AF1"></path>
                </g>
            </g>
        </g>
    </g>
</svg>