<?xml version="1.0" encoding="UTF-8"?>
<!DOCTYPE svg PUBLIC "-//W3C//DTD SVG 1.1//EN" "http://www.w3.org/Graphics/SVG/1.1/DTD/svg11.dtd">
<svg xmlns="http://www.w3.org/2000/svg" version="1.1" width="96px" height="96px" style="shape-rendering:geometricPrecision; text-rendering:geometricPrecision; image-rendering:optimizeQuality; fill-rule:evenodd; clip-rule:evenodd" xmlns:xlink="http://www.w3.org/1999/xlink">
<g><path style="opacity:0.989" fill="#da251d" d="M 38.5,-0.5 C 44.5,-0.5 50.5,-0.5 56.5,-0.5C 76.7475,4.74773 89.7475,17.4144 95.5,37.5C 95.5,44.1667 95.5,50.8333 95.5,57.5C 89.7338,77.5996 76.7338,90.2663 56.5,95.5C 50.5,95.5 44.5,95.5 38.5,95.5C 18.2662,90.2663 5.26618,77.5996 -0.5,57.5C -0.5,50.8333 -0.5,44.1667 -0.5,37.5C 5.25248,17.4144 18.2525,4.74773 38.5,-0.5 Z"/></g>
<g><path style="opacity:1" fill="#fef2f1" d="M 55.5,14.5 C 57.5,14.5 59.5,14.5 61.5,14.5C 61.5,16.5 61.5,18.5 61.5,20.5C 63.8333,20.5 66.1667,20.5 68.5,20.5C 68.67,21.8221 68.3366,22.9887 67.5,24C 65.5273,24.4955 63.5273,24.6621 61.5,24.5C 61.5,38.8333 61.5,53.1667 61.5,67.5C 57.1694,68.5489 55.0027,66.8822 55,62.5C 53.4571,64.3783 51.6238,65.8783 49.5,67C 37.5184,69.7654 30.0184,65.2654 27,53.5C 25.1121,44.4968 27.6121,36.9968 34.5,31C 42.7465,26.5743 49.5798,28.0743 55,35.5C 55.4986,31.8484 55.6653,28.1817 55.5,24.5C 51.1667,24.5 46.8333,24.5 42.5,24.5C 42.5,23.1667 42.5,21.8333 42.5,20.5C 46.8333,20.5 51.1667,20.5 55.5,20.5C 55.5,18.5 55.5,16.5 55.5,14.5 Z"/></g>
<g><path style="opacity:1" fill="#da2a20" d="M 39.5,33.5 C 46.8996,32.1172 52.0663,34.7839 55,41.5C 55.6667,45.8333 55.6667,50.1667 55,54.5C 52.0421,62.1451 46.5421,64.6451 38.5,62C 33.1827,56.5739 31.3493,50.0739 33,42.5C 34.2105,38.7209 36.3772,35.7209 39.5,33.5 Z"/></g>
<g><path style="opacity:1" fill="#fde9e7" d="M 35.5,73.5 C 42.5,73.5 49.5,73.5 56.5,73.5C 56.5,74.8333 56.5,76.1667 56.5,77.5C 49.5,77.5 42.5,77.5 35.5,77.5C 35.5,76.1667 35.5,74.8333 35.5,73.5 Z"/></g>
</svg>
