<?xml version="1.0" encoding="UTF-8"?>
<svg width="30px" height="30px" viewBox="0 0 30 30" version="1.1" xmlns="http://www.w3.org/2000/svg" xmlns:xlink="http://www.w3.org/1999/xlink">
    <title>编组 12</title>
    <g id="页面-1" stroke="none" stroke-width="1" fill="none" fill-rule="evenodd">
        <g id="理财" transform="translate(-44.000000, -239.000000)">
            <g id="编组-12" transform="translate(44.000000, 239.000000)">
                <rect id="矩形" fill="#D8D8D8" opacity="0" x="0" y="0" width="30" height="30"></rect>
                <g id="1" fill-rule="nonzero">
                    <g id="Vector">
                        <g transform="translate(6.810502, 19.646651)" fill="#613AF1">
                            <path d="M1.04651163,0 C1.62447907,0 2.09302326,0.46855814 2.09302326,1.04651163 L2.09302326,3.93488372 C2.09302326,4.51283721 1.62447907,4.98139535 1.04651163,4.98139535 C0.468544186,4.98139535 0,4.51283721 0,3.93488372 L0,1.04651163 C0,0.46855814 0.468544186,0 1.04651163,0 L1.04651163,0 Z"></path>
                        </g>
                        <g transform="translate(13.953488, 16.757860)" fill="#613AF1">
                            <path d="M1.04651163,0 C1.62446512,0 2.09302326,0.46855814 2.09302326,1.04651163 L2.09302326,6.82325581 C2.09302326,7.4012093 1.62446512,7.86976744 1.04651163,7.86976744 C0.46855814,7.86976744 0,7.4012093 0,6.82325581 L0,1.04651163 C0,0.46855814 0.46855814,0 1.04651163,0 L1.04651163,0 Z"></path>
                        </g>
                        <g transform="translate(21.096419, 13.855395)" fill="#613AF1">
                            <path d="M1.04651163,0 C1.62460465,0 2.09302326,0.46855814 2.09302326,1.04651163 L2.09302326,9.7255814 C2.09302326,10.3035349 1.62460465,10.772093 1.04651163,10.772093 C0.46855814,10.772093 0,10.3035349 0,9.7255814 L0,1.04651163 C0,0.46855814 0.46855814,0 1.04651163,0 Z"></path>
                        </g>
                        <g transform="translate(6.810502, 5.371549)" fill="#613AF1">
                            <path d="M14.5335907,0.373255814 L14.5381953,0.367883721 C14.7301953,0.14275814 15.0158233,0 15.3349395,0 C15.912893,0 16.3814512,0.468544186 16.3814512,1.04651163 C16.3814512,1.30546047 16.2874047,1.54243256 16.1315442,1.72515349 L16.1276372,1.72974419 L15.4896837,2.47862791 C11.790893,6.80112558 6.83907907,9.8570093 1.32290233,11.2375674 C1.23485581,11.2615674 1.14217674,11.2744047 1.04651163,11.2744047 C0.468544186,11.2744047 0,10.8058465 0,10.227893 C0,9.72975349 0.347986047,9.31296279 0.814116279,9.20733488 C5.90907907,7.93226512 10.4830326,5.11036744 13.8963349,1.12137209 L14.5335907,0.373255814 Z"></path>
                        </g>
                        <g transform="translate(17.008605, 5.371549)" fill="#613AF1">
                            <path d="M1.04651163,2.09302326 C0.468418605,2.09302326 0,1.62447907 0,1.04651163 C0,0.468544186 0.468418605,0 1.04651163,0 L5.13488372,0 C5.71283721,0 6.18139535,0.468544186 6.18139535,1.04651163 L6.18139535,5.11974419 L6.18139535,5.12093023 C6.18139535,5.69889767 5.71283721,6.16744186 5.13488372,6.16744186 C4.5567907,6.16744186 4.08837209,5.69889767 4.08837209,5.12093023 L4.08837209,2.09302326 L1.04651163,2.09302326 Z"></path>
                        </g>
                        <path d="M10.8139535,27.9069767 L19.1860465,27.9069767 C25.0000047,27.9069767 27.9069767,25.0000047 27.9069767,19.1860465 L27.9069767,10.8139535 C27.9069767,4.99999535 25.0000047,2.09302326 19.1860465,2.09302326 L10.8139535,2.09302326 C4.99999535,2.09302326 2.09302326,4.99999535 2.09302326,10.8139535 L2.09302326,19.1860465 C2.09302326,25.0000047 4.99999535,27.9069767 10.8139535,27.9069767 Z M10.8139535,30 C3.60464651,30 0,26.3953535 0,19.1860465 L0,10.8139535 C0,3.60464651 3.60464651,0 10.8139535,0 L19.1860465,0 C26.3953535,0 30,3.60464651 30,10.8139535 L30,19.1860465 C30,26.3953535 26.3953535,30 19.1860465,30 L10.8139535,30 Z" fill="#FFFFFF"></path>
                    </g>
                </g>
            </g>
        </g>
    </g>
</svg>